<svg width="512" height="512" viewBox="0 0 512 512" fill="none" xmlns="http://www.w3.org/2000/svg">
    <path d="M256 451.548C148 451.548 60.4481 364 60.4481 256C60.4481 148 148 60.448 256 60.448C364.004 60.448 451.552 148 451.552 256C451.552 263.9 457.964 270.308 465.86 270.308C473.756 270.308 480.164 263.896 480.164 256C480.164 132.2 379.8 31.832 256 31.832C132.2 31.832 31.8361 132.2 31.8361 256C31.8361 379.8 132.2 480.168 256 480.168C263.9 480.168 270.308 473.756 270.308 465.86C270.308 457.964 263.9 451.548 256 451.548Z" fill="#1D3BBC"/>
    <path d="M241.692 103.376V260.764H160.604C152.712 260.764 146.304 267.176 146.304 275.072C146.304 282.98 152.716 289.388 160.604 289.388H256C263.9 289.388 270.308 282.976 270.308 275.072V103.376C270.308 95.472 263.896 89.064 256 89.064C248.104 89.064 241.692 95.476 241.692 103.376Z" fill="#1D3BBC"/>
    <path d="M370.468 260.764C309.88 260.764 260.768 309.876 260.768 370.464C260.768 431.056 309.876 480.168 370.468 480.168C431.052 480.168 480.164 431.06 480.164 370.464C480.164 309.876 431.056 260.764 370.468 260.764ZM371.796 419.32C367.032 425.628 358.048 426.876 351.748 422.112L307.996 389.036C301.704 384.28 300.452 375.3 305.224 368.992C309.984 362.692 318.968 361.444 325.26 366.2L357.6 390.648L403.192 330.332C407.956 324.028 416.936 322.78 423.236 327.544C429.536 332.308 430.788 341.288 426.02 347.592L371.796 419.32Z" fill="#1D3BBC"/>
</svg>
