<svg width="64" height="64" viewBox="0 0 64 64" fill="none" xmlns="http://www.w3.org/2000/svg">
<path fill-rule="evenodd" clip-rule="evenodd" d="M23.8334 31.8333C29.026 31.8333 33.2501 27.6093 33.2501 22.4167C33.2501 17.2241 29.026 13 23.8334 13C18.6408 13 14.4167 17.2241 14.4167 22.4167C14.4167 27.6093 18.6408 31.8333 23.8334 31.8333ZM23.8333 18.3809C26.0664 18.3809 27.869 20.1835 27.869 22.4166C27.869 24.6497 26.0664 26.4524 23.8333 26.4524C21.6002 26.4524 19.7976 24.6497 19.7976 22.4166C19.7976 20.1835 21.6002 18.3809 23.8333 18.3809ZM12.4526 45.2857H23.9679C23.8872 45.7162 23.8333 46.1736 23.8333 46.631V50.6667H5V46.631C5 40.3621 17.5376 37.2143 23.8333 37.2143C25.34 37.2143 27.1964 37.4026 29.1605 37.7524C27.2502 39.0438 25.6629 40.6581 24.7481 42.6221C24.6002 42.6221 24.4455 42.6154 24.2909 42.6087L24.2907 42.6087C24.136 42.602 23.9813 42.5952 23.8333 42.5952C19.7169 42.5952 15.1162 43.9405 12.4526 45.2857ZM44.012 38.5595C39.0615 38.5595 29.2143 41.2769 29.2143 46.6309V50.6667H58.8096V46.6309C58.8096 41.2769 48.9624 38.5595 44.012 38.5595ZM50.7381 27.7976C50.7381 30.3267 49.3122 32.5059 47.2674 33.6628C46.2989 34.2009 45.1958 34.5238 44.0119 34.5238C42.8281 34.5238 41.725 34.2009 40.7565 33.6628C38.7117 32.5059 37.2858 30.3267 37.2858 27.7976C37.2858 24.0847 40.2991 21.0714 44.0119 21.0714C47.7248 21.0714 50.7381 24.0847 50.7381 27.7976Z" fill="#1D3BBC"/>
</svg>
