<svg width="64" height="64" viewBox="0 0 64 64" fill="none" xmlns="http://www.w3.org/2000/svg">
<circle cx="32" cy="32" r="32" fill="#F8FAFC"/>
<path fill-rule="evenodd" clip-rule="evenodd" d="M43.4142 20.5858C44.1953 21.3668 44.1953 22.6332 43.4142 23.4142L33.4142 33.4142C32.6332 34.1953 31.3668 34.1953 30.5858 33.4142L20.5858 23.4142C19.8047 22.6332 19.8047 21.3668 20.5858 20.5858C21.3668 19.8047 22.6332 19.8047 23.4142 20.5858L32 29.1716L40.5858 20.5858C41.3668 19.8047 42.6332 19.8047 43.4142 20.5858ZM43.4142 32.5858C44.1953 33.3668 44.1953 34.6332 43.4142 35.4142L33.4142 45.4142C32.6332 46.1953 31.3668 46.1953 30.5858 45.4142L20.5858 35.4142C19.8047 34.6332 19.8047 33.3668 20.5858 32.5858C21.3668 31.8047 22.6332 31.8047 23.4142 32.5858L32 41.1716L40.5858 32.5858C41.3668 31.8047 42.6332 31.8047 43.4142 32.5858Z" fill="#0D194C"/>
</svg>
