<svg width="64" height="64" viewBox="0 0 64 64" fill="none" xmlns="http://www.w3.org/2000/svg">
<path fill-rule="evenodd" clip-rule="evenodd" d="M56 24H39.1733L41.7066 11.8133L41.7866 10.96C41.7866 9.86665 41.3333 8.85331 40.6133 8.13331L37.7866 5.33331L20.24 22.9066C19.2533 23.8666 18.6666 25.2 18.6666 26.6666V53.3333C18.6666 56.2666 21.0666 58.6666 24 58.6666H48C50.2133 58.6666 52.1066 57.3333 52.9066 55.4133L60.96 36.6133C61.2 36 61.3333 35.36 61.3333 34.6666V29.3333C61.3333 26.4 58.9333 24 56 24ZM56 34.6666L48 53.3333H24V26.6666L35.5733 15.0933L32.6133 29.3333H56V34.6666ZM13.3333 26.6666H2.66663V58.6666H13.3333V26.6666Z" fill="#1D3BBC"/>
</svg>
