<svg width="64" height="64" viewBox="0 0 64 64" fill="none" xmlns="http://www.w3.org/2000/svg">
<path fill-rule="evenodd" clip-rule="evenodd" d="M28.4444 14.2222V0H32C49.6711 0 64 14.3289 64 32C64 49.6711 49.6711 64 32 64C14.2933 64 0 49.6711 0 32C0 21.5111 5.04889 12.2667 12.8356 6.43556V6.36444L37.0133 30.5422L32 35.5556L12.7289 16.2844C9.20889 20.5511 7.11111 26.0267 7.11111 32C7.11111 45.76 18.24 56.8889 32 56.8889C45.76 56.8889 56.8889 45.76 56.8889 32C56.8889 19.4489 47.6089 9.13778 35.5556 7.39556V14.2222H28.4444ZM32.0001 53.3334C30.0445 53.3334 28.4445 51.7334 28.4445 49.7778C28.4445 47.8222 30.0445 46.2222 32.0001 46.2222C33.9556 46.2222 35.5556 47.8222 35.5556 49.7778C35.5556 51.7334 33.9556 53.3334 32.0001 53.3334ZM53.3333 32C53.3333 30.0444 51.7333 28.4444 49.7777 28.4444C47.8222 28.4444 46.2222 30.0444 46.2222 32C46.2222 33.9555 47.8222 35.5555 49.7777 35.5555C51.7333 35.5555 53.3333 33.9555 53.3333 32ZM14.2222 35.5555C12.2667 35.5555 10.6667 33.9555 10.6667 32C10.6667 30.0444 12.2667 28.4444 14.2222 28.4444C16.1778 28.4444 17.7778 30.0444 17.7778 32C17.7778 33.9555 16.1778 35.5555 14.2222 35.5555Z" fill="#1D3BBC"/>
</svg>
