<svg width="40" height="40" viewBox="0 0 40 40" fill="none" xmlns="http://www.w3.org/2000/svg">
    <path d="M18.0978 7.85413C18.6965 6.01151 21.3033 6.01151 21.902 7.85413L24.0412 14.4377C24.3089 15.2618 25.0768 15.8197 25.9433 15.8197H32.8657C34.8031 15.8197 35.6087 18.2989 34.0413 19.4377L28.4409 23.5066C27.74 24.0159 27.4466 24.9186 27.7144 25.7427L29.8535 32.3263C30.4522 34.1689 28.3433 35.7011 26.7758 34.5623L21.1755 30.4935C20.4745 29.9842 19.5253 29.9842 18.8244 30.4935L13.224 34.5623C11.6566 35.7011 9.54767 34.1689 10.1463 32.3263L12.2855 25.7427C12.5532 24.9186 12.2599 24.0159 11.5589 23.5066L5.95864 19.4377C4.39121 18.2989 5.19676 15.8197 7.13421 15.8197H14.0566C14.923 15.8197 15.6909 15.2618 15.9587 14.4377L18.0978 7.85413Z" fill="#F2DA02"/>
</svg>
